<svg xmlns="http://www.w3.org/2000/svg" viewBox="0 0 512 512">
  <defs>
    <linearGradient id="g" x1="0" y1="0" x2="0" y2="1">
      <stop offset="0" stop-color="#3fce7f"/>
      <stop offset="1" stop-color="#0c924f"/>
    </linearGradient>
  </defs>
  <rect width="512" height="512" rx="112" fill="url(#g)"/>
  <path fill="#fff" d="M150 170a26 26 0 0 1 26-26h150a26 26 0 0 1 0 52H176a26 26 0 0 1-26-26zm0 86a26 26 0 0 1 26-26h180a26 26 0 0 1 0 52H176a26 26 0 0 1-26-26zm0 86a26 26 0 0 1 26-26h96a26 26 0 0 1 0 52h-96a26 26 0 0 1-26-26z"/>
</svg>
